<svg xmlns="http://www.w3.org/2000/svg" width="16" height="16" viewBox="0 0 16 16"><path d="M5.864 8.585l1.69 1.657L1.688 16 0 14.343zM10.672.908v.908c.978 0 1.854.387 2.49 1.01.636.626 1.023 1.476 1.023 2.422 0 .945-.388 1.794-1.023 2.42-.637.623-1.513 1.01-2.49 1.01-.98 0-1.854-.387-2.49-1.01-.636-.626-1.023-1.475-1.023-2.42 0-.946.386-1.795 1.022-2.42.637-.625 1.512-1.012 2.49-1.012V0C9.21 0 7.874.584 6.91 1.53c-.964.945-1.567 2.266-1.566 3.717 0 1.45.602 2.77 1.566 3.715.963.947 2.3 1.53 3.763 1.53 1.46 0 2.797-.584 3.76-1.53C15.398 8.018 16 6.698 16 5.247c0-1.45-.6-2.772-1.565-3.715C13.472.585 12.137 0 10.675 0v.908z" fill="#fff"/></svg>