<svg xmlns="http://www.w3.org/2000/svg" width="10" height="10" viewBox="0 0 10 10"><path fill="#333" d="M10 6.214c0-.45-.084-.8-.455-.823.162-.02.27-.316.25-.75-.023-.435-.17-.81-.55-.787L7.722 3.85c.005-.05.646-1.398 1.355-2.685C9.26.785 9.14.31 8.81.1c-.33-.21-.745-.073-.93.306 0 0-.452.765-.884 1.147-1.204 1.072-3.844 2.492-3.976 3.14H.896c-.48 0-.873.533-.89 1.085C.005 5.814 0 8.305 0 8.305c0 .604.428.97.95.97h2.085c.01.28.363.757 1.21.723l4.44.002c.405 0 .6-.145.642-.527.043-.397.025-.693-.26-.722l.238.004c.404 0 .498-.377.498-.843 0-.455-.092-.814-.396-.84H9.5c.402 0 .494-.39.494-.854H10v-.002z"/></svg>