<svg xmlns="http://www.w3.org/2000/svg" width="10" height="10" viewBox="396.025 410.772 10 10" enable-background="new 396.025 410.772 10 10"><path d="M406.025 416.987c0-.45-.085-.8-.456-.823.164-.02.27-.318.25-.752-.02-.433-.17-.81-.547-.787l-1.527-.002c.004-.05.645-1.398 1.356-2.685.184-.38.065-.856-.265-1.067-.33-.21-.746-.073-.93.306 0 0-.452.763-.884 1.147-1.206 1.073-3.845 2.493-3.978 3.14h-2.125c-.48 0-.872.534-.888 1.086-.004.036-.007 2.527-.007 2.527 0 .604.427.97.953.97h2.084c.01.28.365.757 1.21.723l4.444.002c.404 0 .6-.144.64-.528.042-.395.026-.692-.26-.722l.24.003c.404 0 .498-.377.498-.842 0-.456-.092-.816-.398-.84h.093c.405 0 .495-.39.495-.856z" fill="#333"/></svg>