<svg xmlns="http://www.w3.org/2000/svg" width="8" height="13" viewBox="0 0 8 13"><path fill="#89398D" stroke="#89398D" stroke-miterlimit="10" d="M.5 8.75c0 2.07 1.566 3.75 3.5 3.75s3.5-1.677 3.5-3.75c0-.842-.262-1.617-.7-2.243V3.5c0-1.657-1.253-3-2.8-3-1.546 0-2.8 1.343-2.8 3h.7c0-1.244.94-2.25 2.1-2.25S6.1 2.256 6.1 3.5v2.255C5.515 5.283 4.79 5 4 5 2.066 5 .5 6.677.5 8.75zm.7 0c0-1.656 1.254-3 2.8-3 1.547 0 2.8 1.344 2.8 3s-1.253 3-2.8 3c-1.546 0-2.8-1.345-2.8-3z"/><ellipse fill="#89398D" stroke="#89398D" stroke-miterlimit="10" cx="4.041" cy="8.845" rx=".873" ry=".934"/></svg>