<svg version="1.2" baseProfile="tiny" xmlns="http://www.w3.org/2000/svg" width="22" height="20" viewBox="0 0 22 20"><path fill="#fff" d="M22 2.367c-.81.402-1.68.673-2.592.795.932-.624 1.646-1.614 1.984-2.793-.873.57-1.838.99-2.867 1.22C17.703.61 16.53 0 15.23 0c-2.49 0-4.513 2.26-4.513 5.05 0 .394.04.78.117 1.15C7.084 5.99 3.757 3.98 1.53.924 1.143 1.67.92 2.537.92 3.462c0 1.752.797 3.297 2.008 4.203-.74-.026-1.435-.254-2.044-.632v.064c0 2.446 1.555 4.487 3.62 4.95-.38.116-.777.178-1.19.178-.29 0-.572-.03-.848-.09.574 2.006 2.24 3.465 4.216 3.506-1.544 1.36-3.49 2.17-5.605 2.17-.365 0-.724-.023-1.077-.07C1.997 19.17 4.37 20 6.92 20c8.3 0 12.84-7.693 12.84-14.366 0-.22-.003-.436-.012-.653.882-.71 1.646-1.6 2.252-2.61v-.003z"/></svg>